<?xml version="1.0" encoding="UTF-8"?>
<svg xmlns="http://www.w3.org/2000/svg" xmlns:xlink="http://www.w3.org/1999/xlink" width="540px" height="180px" viewBox="0 0 540 180" version="1.1">
<g id="surface1">
<path style="fill:none;stroke-width:1.5;stroke-linecap:round;stroke-linejoin:miter;stroke:rgb(0%,0%,0%);stroke-opacity:1;stroke-miterlimit:4;" d="M 22.5 11.630859 L 22.5 6 " transform="matrix(2,0,0,2,0,0)"/>
<path style="fill:none;stroke-width:1.5;stroke-linecap:round;stroke-linejoin:miter;stroke:rgb(0%,0%,0%);stroke-opacity:1;stroke-miterlimit:4;" d="M 20 8 L 25 8 " transform="matrix(2,0,0,2,0,0)"/>
<path style="fill-rule:evenodd;fill:rgb(100%,100%,100%);fill-opacity:1;stroke-width:1.5;stroke-linecap:butt;stroke-linejoin:miter;stroke:rgb(0%,0%,0%);stroke-opacity:1;stroke-miterlimit:4;" d="M 22.5 25 C 22.5 25 27 17.5 25.5 14.5 C 25.5 14.5 24.5 12 22.5 12 C 20.5 12 19.5 14.5 19.5 14.5 C 18 17.5 22.5 25 22.5 25 " transform="matrix(2,0,0,2,0,0)"/>
<path style="fill-rule:evenodd;fill:rgb(100%,100%,100%);fill-opacity:1;stroke-width:1.5;stroke-linecap:round;stroke-linejoin:round;stroke:rgb(0%,0%,0%);stroke-opacity:1;stroke-miterlimit:4;" d="M 11.5 37 C 17 40.5 27 40.5 32.5 37 L 32.5 30 C 32.5 30 41.5 25.5 38.5 19.5 C 34.5 13 25 16 22.5 23.5 L 22.5 27 L 22.5 23.5 C 19 16 9.5 13 6.5 19.5 C 3.5 25.5 11.5 29.5 11.5 29.5 Z M 11.5 37 " transform="matrix(2,0,0,2,0,0)"/>
<path style="fill:none;stroke-width:1.5;stroke-linecap:round;stroke-linejoin:round;stroke:rgb(0%,0%,0%);stroke-opacity:1;stroke-miterlimit:4;" d="M 11.5 30 C 17 27 27 27 32.5 30 " transform="matrix(2,0,0,2,0,0)"/>
<path style="fill:none;stroke-width:1.5;stroke-linecap:round;stroke-linejoin:round;stroke:rgb(0%,0%,0%);stroke-opacity:1;stroke-miterlimit:4;" d="M 11.5 33.5 C 17 30.5 27 30.5 32.5 33.5 " transform="matrix(2,0,0,2,0,0)"/>
<path style="fill:none;stroke-width:1.5;stroke-linecap:round;stroke-linejoin:round;stroke:rgb(0%,0%,0%);stroke-opacity:1;stroke-miterlimit:4;" d="M 11.5 37 C 17 34 27 34 32.5 37 " transform="matrix(2,0,0,2,0,0)"/>
<path style="fill-rule:evenodd;fill:rgb(100%,100%,100%);fill-opacity:1;stroke-width:1.5;stroke-linecap:round;stroke-linejoin:round;stroke:rgb(0%,0%,0%);stroke-opacity:1;stroke-miterlimit:4;" d="M 9 13 C 9 14.105469 8.105469 15 7 15 C 5.894531 15 5 14.105469 5 13 C 5 11.894531 5.894531 11 7 11 C 8.105469 11 9 11.894531 9 13 Z M 9 13 " transform="matrix(2,0,0,2,88,-2)"/>
<path style="fill-rule:evenodd;fill:rgb(100%,100%,100%);fill-opacity:1;stroke-width:1.5;stroke-linecap:round;stroke-linejoin:round;stroke:rgb(0%,0%,0%);stroke-opacity:1;stroke-miterlimit:4;" d="M 9 13 C 9 14.105469 8.105469 15 7 15 C 5.894531 15 5 14.105469 5 13 C 5 11.894531 5.894531 11 7 11 C 8.105469 11 9 11.894531 9 13 Z M 9 13 " transform="matrix(2,0,0,2,121,-11)"/>
<path style="fill-rule:evenodd;fill:rgb(100%,100%,100%);fill-opacity:1;stroke-width:1.5;stroke-linecap:round;stroke-linejoin:round;stroke:rgb(0%,0%,0%);stroke-opacity:1;stroke-miterlimit:4;" d="M 9 13 C 9 14.105469 8.105469 15 7 15 C 5.894531 15 5 14.105469 5 13 C 5 11.894531 5.894531 11 7 11 C 8.105469 11 9 11.894531 9 13 Z M 9 13 " transform="matrix(2,0,0,2,154,-2)"/>
<path style="fill-rule:evenodd;fill:rgb(100%,100%,100%);fill-opacity:1;stroke-width:1.5;stroke-linecap:round;stroke-linejoin:round;stroke:rgb(0%,0%,0%);stroke-opacity:1;stroke-miterlimit:4;" d="M 9 13 C 9 14.105469 8.105469 15 7 15 C 5.894531 15 5 14.105469 5 13 C 5 11.894531 5.894531 11 7 11 C 8.105469 11 9 11.894531 9 13 Z M 9 13 " transform="matrix(2,0,0,2,104,-9)"/>
<path style="fill-rule:evenodd;fill:rgb(100%,100%,100%);fill-opacity:1;stroke-width:1.5;stroke-linecap:round;stroke-linejoin:round;stroke:rgb(0%,0%,0%);stroke-opacity:1;stroke-miterlimit:4;" d="M 9 13 C 9 14.105469 8.105469 15 7 15 C 5.894531 15 5 14.105469 5 13 C 5 11.894531 5.894531 11 7 11 C 8.105469 11 9 11.894531 9 13 Z M 9 13 " transform="matrix(2,0,0,2,138,-8)"/>
<path style="fill-rule:evenodd;fill:rgb(100%,100%,100%);fill-opacity:1;stroke-width:1.5;stroke-linecap:butt;stroke-linejoin:round;stroke:rgb(0%,0%,0%);stroke-opacity:1;stroke-miterlimit:4;" d="M 9 26 C 17.5 24.5 30 24.5 36 26 L 38 14 L 31 25 L 31 11 L 25.5 24.5 L 22.5 9.5 L 19.5 24.5 L 14 10.5 L 14 25 L 7 14 Z M 9 26 " transform="matrix(2,0,0,2,90,0)"/>
<path style="fill-rule:evenodd;fill:rgb(100%,100%,100%);fill-opacity:1;stroke-width:1.5;stroke-linecap:butt;stroke-linejoin:round;stroke:rgb(0%,0%,0%);stroke-opacity:1;stroke-miterlimit:4;" d="M 9 26 C 9 28 10.5 28 11.5 30 C 12.5 31.5 12.5 31 12 33.5 C 10.5 34.5 10.5 36 10.5 36 C 9 37.5 11 38.5 11 38.5 C 17.5 39.5 27.5 39.5 34 38.5 C 34 38.5 35.5 37.5 34 36 C 34 36 34.5 34.5 33 33.5 C 32.5 31 32.5 31.5 33.5 30 C 34.5 28 36 28 36 26 C 27.5 24.5 17.5 24.5 9 26 Z M 9 26 " transform="matrix(2,0,0,2,90,0)"/>
<path style="fill:none;stroke-width:1.5;stroke-linecap:round;stroke-linejoin:round;stroke:rgb(0%,0%,0%);stroke-opacity:1;stroke-miterlimit:4;" d="M 11.5 30 C 15 29 30 29 33.5 30 " transform="matrix(2,0,0,2,90,0)"/>
<path style="fill:none;stroke-width:1.5;stroke-linecap:round;stroke-linejoin:round;stroke:rgb(0%,0%,0%);stroke-opacity:1;stroke-miterlimit:4;" d="M 12 33.5 C 18 32.5 27 32.5 33 33.5 " transform="matrix(2,0,0,2,90,0)"/>
<path style="fill-rule:evenodd;fill:rgb(100%,100%,100%);fill-opacity:1;stroke-width:1.5;stroke-linecap:butt;stroke-linejoin:round;stroke:rgb(0%,0%,0%);stroke-opacity:1;stroke-miterlimit:4;" d="M 9 36 C 12.390625 35.029297 19.109375 36.429688 22.5 34 C 25.890625 36.429688 32.609375 35.029297 36 36 C 36 36 37.650391 36.539062 39 38 C 38.320312 38.970703 37.349609 38.990234 36 38.5 C 32.609375 37.529297 25.890625 38.960938 22.5 37.5 C 19.109375 38.960938 12.390625 37.529297 9 38.5 C 7.646484 38.990234 6.677734 38.970703 6 38 C 7.353516 36.060547 9 36 9 36 Z M 9 36 " transform="matrix(2,0,0,2,180,0)"/>
<path style="fill-rule:evenodd;fill:rgb(100%,100%,100%);fill-opacity:1;stroke-width:1.5;stroke-linecap:butt;stroke-linejoin:round;stroke:rgb(0%,0%,0%);stroke-opacity:1;stroke-miterlimit:4;" d="M 15 32 C 17.5 34.5 27.5 34.5 30 32 C 30.5 30.5 30 30 30 30 C 30 27.5 27.5 26 27.5 26 C 33 24.5 33.5 14.5 22.5 10.5 C 11.5 14.5 12 24.5 17.5 26 C 17.5 26 15 27.5 15 30 C 15 30 14.5 30.5 15 32 Z M 15 32 " transform="matrix(2,0,0,2,180,0)"/>
<path style="fill-rule:evenodd;fill:rgb(100%,100%,100%);fill-opacity:1;stroke-width:1.5;stroke-linecap:butt;stroke-linejoin:round;stroke:rgb(0%,0%,0%);stroke-opacity:1;stroke-miterlimit:4;" d="M 25 8 C 25 9.380859 23.880859 10.5 22.5 10.5 C 21.119141 10.5 20 9.380859 20 8 C 20 6.619141 21.119141 5.5 22.5 5.5 C 23.880859 5.5 25 6.619141 25 8 Z M 25 8 " transform="matrix(2,0,0,2,180,0)"/>
<path style="fill:none;stroke-width:1.5;stroke-linecap:round;stroke-linejoin:miter;stroke:rgb(0%,0%,0%);stroke-opacity:1;stroke-miterlimit:4;" d="M 17.5 26 L 27.5 26 M 15 30 L 30 30 M 22.5 15.5 L 22.5 20.5 M 20 18 L 25 18 " transform="matrix(2,0,0,2,180,0)"/>
<path style="fill-rule:evenodd;fill:rgb(100%,100%,100%);fill-opacity:1;stroke-width:1.5;stroke-linecap:round;stroke-linejoin:round;stroke:rgb(0%,0%,0%);stroke-opacity:1;stroke-miterlimit:4;" d="M 22 10 C 32.5 11 38.5 18 38 39 L 15 39 C 15 30 25 32.5 23 18 " transform="matrix(2,0,0,2,270,0)"/>
<path style="fill-rule:evenodd;fill:rgb(100%,100%,100%);fill-opacity:1;stroke-width:1.5;stroke-linecap:round;stroke-linejoin:round;stroke:rgb(0%,0%,0%);stroke-opacity:1;stroke-miterlimit:4;" d="M 24 18 C 24.380859 20.910156 18.449219 25.369141 16 27 C 13 29 13.179688 31.339844 11 31 C 9.957031 30.060547 12.410156 27.960938 11 28 C 10 28 11.189453 29.230469 10 30 C 9 30 5.996094 31 6 26 C 6 24 12 14 12 14 C 12 14 13.890625 12.099609 14 10.5 C 13.269531 9.505859 13.5 8.5 13.5 7.5 C 14.5 6.5 16.5 10 16.5 10 L 18.5 10 C 18.5 10 19.279297 8.007812 21 7 C 22 7 22 10 22 10 " transform="matrix(2,0,0,2,270,0)"/>
<path style="fill-rule:evenodd;fill:rgb(0%,0%,0%);fill-opacity:1;stroke-width:1.5;stroke-linecap:round;stroke-linejoin:round;stroke:rgb(0%,0%,0%);stroke-opacity:1;stroke-miterlimit:4;" d="M 9.5 25.5 C 9.5 25.775391 9.275391 26 9 26 C 8.724609 26 8.5 25.775391 8.5 25.5 C 8.5 25.224609 8.724609 25 9 25 C 9.275391 25 9.5 25.224609 9.5 25.5 Z M 9.5 25.5 " transform="matrix(2,0,0,2,270,0)"/>
<path style="fill-rule:evenodd;fill:rgb(0%,0%,0%);fill-opacity:1;stroke-width:1.5;stroke-linecap:round;stroke-linejoin:round;stroke:rgb(0%,0%,0%);stroke-opacity:1;stroke-miterlimit:4;" d="M 15.000514 15.499703 C 15.000335 16.327517 14.775614 17.0008 14.499914 16.999851 C 14.224214 16.998902 13.999306 16.328111 13.999486 15.500297 C 13.999665 14.672483 14.224386 13.9992 14.500086 14.000149 C 14.775786 14.001098 15.000694 14.671889 15.000514 15.499703 Z M 15.000514 15.499703 " transform="matrix(1.732,1,-1,1.732,289.386,-10.346)"/>
<path style="fill-rule:evenodd;fill:rgb(100%,100%,100%);fill-opacity:1;stroke-width:1.5;stroke-linecap:butt;stroke-linejoin:round;stroke:rgb(0%,0%,0%);stroke-opacity:1;stroke-miterlimit:4;" d="M 9 39 L 36 39 L 36 36 L 9 36 Z M 9 39 " transform="matrix(2,0,0,2,360,0)"/>
<path style="fill-rule:evenodd;fill:rgb(100%,100%,100%);fill-opacity:1;stroke-width:1.5;stroke-linecap:butt;stroke-linejoin:round;stroke:rgb(0%,0%,0%);stroke-opacity:1;stroke-miterlimit:4;" d="M 12 36 L 12 32 L 33 32 L 33 36 Z M 12 36 " transform="matrix(2,0,0,2,360,0)"/>
<path style="fill-rule:evenodd;fill:rgb(100%,100%,100%);fill-opacity:1;stroke-width:1.5;stroke-linecap:butt;stroke-linejoin:round;stroke:rgb(0%,0%,0%);stroke-opacity:1;stroke-miterlimit:4;" d="M 11 14 L 11 9 L 15 9 L 15 11 L 20 11 L 20 9 L 25 9 L 25 11 L 30 11 L 30 9 L 34 9 L 34 14 " transform="matrix(2,0,0,2,360,0)"/>
<path style="fill-rule:evenodd;fill:rgb(100%,100%,100%);fill-opacity:1;stroke-width:1.5;stroke-linecap:round;stroke-linejoin:round;stroke:rgb(0%,0%,0%);stroke-opacity:1;stroke-miterlimit:4;" d="M 34 14 L 31 17 L 14 17 L 11 14 " transform="matrix(2,0,0,2,360,0)"/>
<path style="fill-rule:evenodd;fill:rgb(100%,100%,100%);fill-opacity:1;stroke-width:1.5;stroke-linecap:butt;stroke-linejoin:miter;stroke:rgb(0%,0%,0%);stroke-opacity:1;stroke-miterlimit:4;" d="M 31 17 L 31 29.5 L 14 29.5 L 14 17 " transform="matrix(2,0,0,2,360,0)"/>
<path style="fill-rule:evenodd;fill:rgb(100%,100%,100%);fill-opacity:1;stroke-width:1.5;stroke-linecap:round;stroke-linejoin:round;stroke:rgb(0%,0%,0%);stroke-opacity:1;stroke-miterlimit:4;" d="M 31 29.5 L 32.5 32 L 12.5 32 L 14 29.5 " transform="matrix(2,0,0,2,360,0)"/>
<path style="fill:none;stroke-width:1.5;stroke-linecap:round;stroke-linejoin:miter;stroke:rgb(0%,0%,0%);stroke-opacity:1;stroke-miterlimit:4;" d="M 11 14 L 34 14 " transform="matrix(2,0,0,2,360,0)"/>
<path style="fill-rule:nonzero;fill:rgb(100%,100%,100%);fill-opacity:1;stroke-width:1.5;stroke-linecap:round;stroke-linejoin:miter;stroke:rgb(0%,0%,0%);stroke-opacity:1;stroke-miterlimit:4;" d="M 22 9 C 19.789062 9 18 10.789062 18 13 C 18 13.890625 18.289062 14.710938 18.779297 15.380859 C 16.830078 16.5 15.5 18.589844 15.5 21 C 15.5 23.029297 16.439453 24.839844 17.910156 26.029297 C 14.910156 27.089844 10.5 31.580078 10.5 39.5 L 33.5 39.5 C 33.5 31.580078 29.089844 27.089844 26.089844 26.029297 C 27.560547 24.839844 28.5 23.029297 28.5 21 C 28.5 18.589844 27.169922 16.5 25.220703 15.380859 C 25.710938 14.710938 26 13.890625 26 13 C 26 10.789062 24.210938 9 22 9 Z M 22 9 " transform="matrix(2,0,0,2,450,0)"/>
<path style="fill:none;stroke-width:1.5;stroke-linecap:round;stroke-linejoin:miter;stroke:rgb(0%,0%,0%);stroke-opacity:1;stroke-miterlimit:4;" d="M 22.5 11.630859 L 22.5 6 " transform="matrix(2,0,0,2,0,90)"/>
<path style="fill-rule:evenodd;fill:rgb(0%,0%,0%);fill-opacity:1;stroke-width:1.5;stroke-linecap:butt;stroke-linejoin:miter;stroke:rgb(0%,0%,0%);stroke-opacity:1;stroke-miterlimit:4;" d="M 22.5 25 C 22.5 25 27 17.5 25.5 14.5 C 25.5 14.5 24.5 12 22.5 12 C 20.5 12 19.5 14.5 19.5 14.5 C 18 17.5 22.5 25 22.5 25 " transform="matrix(2,0,0,2,0,90)"/>
<path style="fill-rule:evenodd;fill:rgb(0%,0%,0%);fill-opacity:1;stroke-width:1.5;stroke-linecap:round;stroke-linejoin:round;stroke:rgb(0%,0%,0%);stroke-opacity:1;stroke-miterlimit:4;" d="M 11.5 37 C 17 40.5 27 40.5 32.5 37 L 32.5 30 C 32.5 30 41.5 25.5 38.5 19.5 C 34.5 13 25 16 22.5 23.5 L 22.5 27 L 22.5 23.5 C 19 16 9.5 13 6.5 19.5 C 3.5 25.5 11.5 29.5 11.5 29.5 Z M 11.5 37 " transform="matrix(2,0,0,2,0,90)"/>
<path style="fill:none;stroke-width:1.5;stroke-linecap:round;stroke-linejoin:miter;stroke:rgb(0%,0%,0%);stroke-opacity:1;stroke-miterlimit:4;" d="M 20 8 L 25 8 " transform="matrix(2,0,0,2,0,90)"/>
<path style="fill:none;stroke-width:1.5;stroke-linecap:round;stroke-linejoin:round;stroke:rgb(100%,100%,100%);stroke-opacity:1;stroke-miterlimit:4;" d="M 32 29.5 C 32 29.5 40.5 25.5 38.029297 19.849609 C 34.150391 14 25 18 22.5 24.5 L 22.509766 26.599609 L 22.5 24.5 C 20 18 9.90625 14 6.996094 19.849609 C 4.5 25.5 11.849609 28.849609 11.849609 28.849609 " transform="matrix(2,0,0,2,0,90)"/>
<path style="fill:none;stroke-width:1.5;stroke-linecap:round;stroke-linejoin:round;stroke:rgb(100%,100%,100%);stroke-opacity:1;stroke-miterlimit:4;" d="M 11.5 30 C 17 27 27 27 32.5 30 M 11.5 33.5 C 17 30.5 27 30.5 32.5 33.5 M 11.5 37 C 17 34 27 34 32.5 37 " transform="matrix(2,0,0,2,0,90)"/>
<path style=" stroke:none;fill-rule:evenodd;fill:rgb(0%,0%,0%);fill-opacity:1;" d="M 107.5 114 C 107.5 117.039062 105.039062 119.5 102 119.5 C 98.960938 119.5 96.5 117.039062 96.5 114 C 96.5 110.960938 98.960938 108.5 102 108.5 C 105.039062 108.5 107.5 110.960938 107.5 114 Z M 107.5 114 "/>
<path style=" stroke:none;fill-rule:evenodd;fill:rgb(0%,0%,0%);fill-opacity:1;" d="M 123.5 108 C 123.5 111.039062 121.039062 113.5 118 113.5 C 114.960938 113.5 112.5 111.039062 112.5 108 C 112.5 104.960938 114.960938 102.5 118 102.5 C 121.039062 102.5 123.5 104.960938 123.5 108 Z M 123.5 108 "/>
<path style=" stroke:none;fill-rule:evenodd;fill:rgb(0%,0%,0%);fill-opacity:1;" d="M 140.5 106 C 140.5 109.039062 138.039062 111.5 135 111.5 C 131.960938 111.5 129.5 109.039062 129.5 106 C 129.5 102.960938 131.960938 100.5 135 100.5 C 138.039062 100.5 140.5 102.960938 140.5 106 Z M 140.5 106 "/>
<path style=" stroke:none;fill-rule:evenodd;fill:rgb(0%,0%,0%);fill-opacity:1;" d="M 157.5 108 C 157.5 111.039062 155.039062 113.5 152 113.5 C 148.960938 113.5 146.5 111.039062 146.5 108 C 146.5 104.960938 148.960938 102.5 152 102.5 C 155.039062 102.5 157.5 104.960938 157.5 108 Z M 157.5 108 "/>
<path style=" stroke:none;fill-rule:evenodd;fill:rgb(0%,0%,0%);fill-opacity:1;" d="M 173.5 114 C 173.5 117.039062 171.039062 119.5 168 119.5 C 164.960938 119.5 162.5 117.039062 162.5 114 C 162.5 110.960938 164.960938 108.5 168 108.5 C 171.039062 108.5 173.5 110.960938 173.5 114 Z M 173.5 114 "/>
<path style="fill-rule:evenodd;fill:rgb(0%,0%,0%);fill-opacity:1;stroke-width:1.5;stroke-linecap:butt;stroke-linejoin:round;stroke:rgb(0%,0%,0%);stroke-opacity:1;stroke-miterlimit:4;" d="M 9 26 C 17.5 24.5 30 24.5 36 26 L 38.5 13.5 L 31 25 L 30.699219 10.900391 L 25.5 24.5 L 22.5 10 L 19.5 24.5 L 14.300781 10.900391 L 14 25 L 6.5 13.5 Z M 9 26 " transform="matrix(2,0,0,2,90,90)"/>
<path style="fill-rule:evenodd;fill:rgb(0%,0%,0%);fill-opacity:1;stroke-width:1.5;stroke-linecap:butt;stroke-linejoin:round;stroke:rgb(0%,0%,0%);stroke-opacity:1;stroke-miterlimit:4;" d="M 9 26 C 9 28 10.5 28 11.5 30 C 12.5 31.5 12.5 31 12 33.5 C 10.5 34.5 10.5 36 10.5 36 C 9 37.5 11 38.5 11 38.5 C 17.5 39.5 27.5 39.5 34 38.5 C 34 38.5 35.5 37.5 34 36 C 34 36 34.5 34.5 33 33.5 C 32.5 31 32.5 31.5 33.5 30 C 34.5 28 36 28 36 26 C 27.5 24.5 17.5 24.5 9 26 Z M 9 26 " transform="matrix(2,0,0,2,90,90)"/>
<path style="fill:none;stroke-width:1.5;stroke-linecap:butt;stroke-linejoin:round;stroke:rgb(0%,0%,0%);stroke-opacity:1;stroke-miterlimit:4;" d="M 11 38.5 C 18.447266 41.091797 26.552734 41.091797 34 38.5 " transform="matrix(2,0,0,2,90,90)"/>
<path style="fill:none;stroke-width:1.5;stroke-linecap:round;stroke-linejoin:round;stroke:rgb(100%,100%,100%);stroke-opacity:1;stroke-miterlimit:4;" d="M 11 29 C 18.447266 26.408203 26.552734 26.408203 34 29 " transform="matrix(2,0,0,2,90,90)"/>
<path style="fill:none;stroke-width:1.5;stroke-linecap:round;stroke-linejoin:round;stroke:rgb(100%,100%,100%);stroke-opacity:1;stroke-miterlimit:4;" d="M 12.5 31.5 L 32.5 31.5 " transform="matrix(2,0,0,2,90,90)"/>
<path style="fill:none;stroke-width:1.5;stroke-linecap:round;stroke-linejoin:round;stroke:rgb(100%,100%,100%);stroke-opacity:1;stroke-miterlimit:4;" d="M 11.5 34.5 C 18.642578 36.865234 26.357422 36.865234 33.5 34.5 " transform="matrix(2,0,0,2,90,90)"/>
<path style="fill:none;stroke-width:1.5;stroke-linecap:round;stroke-linejoin:round;stroke:rgb(100%,100%,100%);stroke-opacity:1;stroke-miterlimit:4;" d="M 10.5 37.5 C 18.25 40.328125 26.75 40.328125 34.5 37.5 " transform="matrix(2,0,0,2,90,90)"/>
<path style="fill-rule:evenodd;fill:rgb(0%,0%,0%);fill-opacity:1;stroke-width:1.5;stroke-linecap:butt;stroke-linejoin:round;stroke:rgb(0%,0%,0%);stroke-opacity:1;stroke-miterlimit:4;" d="M 9 36 C 12.390625 35.029297 19.109375 36.429688 22.5 34 C 25.890625 36.429688 32.609375 35.029297 36 36 C 36 36 37.650391 36.539062 39 38 C 38.320312 38.970703 37.349609 38.990234 36 38.5 C 32.609375 37.529297 25.890625 38.960938 22.5 37.5 C 19.109375 38.960938 12.390625 37.529297 9 38.5 C 7.646484 38.990234 6.677734 38.970703 6 38 C 7.353516 36.060547 9 36 9 36 Z M 9 36 " transform="matrix(2,0,0,2,180,90)"/>
<path style="fill-rule:evenodd;fill:rgb(0%,0%,0%);fill-opacity:1;stroke-width:1.5;stroke-linecap:butt;stroke-linejoin:round;stroke:rgb(0%,0%,0%);stroke-opacity:1;stroke-miterlimit:4;" d="M 15 32 C 17.5 34.5 27.5 34.5 30 32 C 30.5 30.5 30 30 30 30 C 30 27.5 27.5 26 27.5 26 C 33 24.5 33.5 14.5 22.5 10.5 C 11.5 14.5 12 24.5 17.5 26 C 17.5 26 15 27.5 15 30 C 15 30 14.5 30.5 15 32 Z M 15 32 " transform="matrix(2,0,0,2,180,90)"/>
<path style="fill-rule:evenodd;fill:rgb(0%,0%,0%);fill-opacity:1;stroke-width:1.5;stroke-linecap:butt;stroke-linejoin:round;stroke:rgb(0%,0%,0%);stroke-opacity:1;stroke-miterlimit:4;" d="M 25 8 C 25 9.380859 23.880859 10.5 22.5 10.5 C 21.119141 10.5 20 9.380859 20 8 C 20 6.619141 21.119141 5.5 22.5 5.5 C 23.880859 5.5 25 6.619141 25 8 Z M 25 8 " transform="matrix(2,0,0,2,180,90)"/>
<path style="fill:none;stroke-width:1.5;stroke-linecap:round;stroke-linejoin:miter;stroke:rgb(100%,100%,100%);stroke-opacity:1;stroke-miterlimit:4;" d="M 17.5 26 L 27.5 26 M 15 30 L 30 30 M 22.5 15.5 L 22.5 20.5 M 20 18 L 25 18 " transform="matrix(2,0,0,2,180,90)"/>
<path style="fill-rule:evenodd;fill:rgb(0%,0%,0%);fill-opacity:1;stroke-width:1.5;stroke-linecap:round;stroke-linejoin:round;stroke:rgb(0%,0%,0%);stroke-opacity:1;stroke-miterlimit:4;" d="M 22 10 C 32.5 11 38.5 18 38 39 L 15 39 C 15 30 25 32.5 23 18 " transform="matrix(2,0,0,2,270,90)"/>
<path style="fill-rule:evenodd;fill:rgb(0%,0%,0%);fill-opacity:1;stroke-width:1.5;stroke-linecap:round;stroke-linejoin:round;stroke:rgb(0%,0%,0%);stroke-opacity:1;stroke-miterlimit:4;" d="M 24 18 C 24.380859 20.910156 18.449219 25.369141 16 27 C 13 29 13.179688 31.339844 11 31 C 9.957031 30.060547 12.410156 27.960938 11 28 C 10 28 11.189453 29.230469 10 30 C 9 30 5.996094 31 6 26 C 6 24 12 14 12 14 C 12 14 13.890625 12.099609 14 10.5 C 13.269531 9.505859 13.5 8.5 13.5 7.5 C 14.5 6.5 16.5 10 16.5 10 L 18.5 10 C 18.5 10 19.279297 8.007812 21 7 C 22 7 22 10 22 10 " transform="matrix(2,0,0,2,270,90)"/>
<path style="fill-rule:evenodd;fill:rgb(100%,100%,100%);fill-opacity:1;stroke-width:1.5;stroke-linecap:round;stroke-linejoin:round;stroke:rgb(100%,100%,100%);stroke-opacity:1;stroke-miterlimit:4;" d="M 9.5 25.5 C 9.5 25.775391 9.275391 26 9 26 C 8.724609 26 8.5 25.775391 8.5 25.5 C 8.5 25.224609 8.724609 25 9 25 C 9.275391 25 9.5 25.224609 9.5 25.5 Z M 9.5 25.5 " transform="matrix(2,0,0,2,270,90)"/>
<path style="fill-rule:evenodd;fill:rgb(100%,100%,100%);fill-opacity:1;stroke-width:1.5;stroke-linecap:round;stroke-linejoin:round;stroke:rgb(100%,100%,100%);stroke-opacity:1;stroke-miterlimit:4;" d="M 15.000514 15.499703 C 15.000335 16.327517 14.775614 17.0008 14.499914 16.999851 C 14.224214 16.998902 13.999306 16.328111 13.999486 15.500297 C 13.999665 14.672483 14.224386 13.9992 14.500086 14.000149 C 14.775786 14.001098 15.000694 14.671889 15.000514 15.499703 Z M 15.000514 15.499703 " transform="matrix(1.732,1,-1,1.732,289.386,79.654)"/>
<path style=" stroke:none;fill-rule:evenodd;fill:rgb(100%,100%,100%);fill-opacity:1;" d="M 319.101562 110.800781 L 318.199219 113.699219 L 319.199219 114 C 325.5 116 330.5 118.980469 335 127.5 C 339.5 136.019531 341.5 148.121094 340.5 168 L 340.398438 169 L 344.898438 169 L 345 168 C 346 147.878906 343.238281 134.300781 338.5 125.320312 C 333.761719 116.339844 326.921875 112.039062 320.121094 111 Z M 319.101562 110.800781 "/>
<path style="fill-rule:evenodd;fill:rgb(0%,0%,0%);fill-opacity:1;stroke-width:1.5;stroke-linecap:butt;stroke-linejoin:round;stroke:rgb(0%,0%,0%);stroke-opacity:1;stroke-miterlimit:4;" d="M 9 39 L 36 39 L 36 36 L 9 36 Z M 9 39 " transform="matrix(2,0,0,2,360,90)"/>
<path style="fill-rule:evenodd;fill:rgb(0%,0%,0%);fill-opacity:1;stroke-width:1.5;stroke-linecap:butt;stroke-linejoin:round;stroke:rgb(0%,0%,0%);stroke-opacity:1;stroke-miterlimit:4;" d="M 12.5 32 L 14 29.5 L 31 29.5 L 32.5 32 Z M 12.5 32 " transform="matrix(2,0,0,2,360,90)"/>
<path style="fill-rule:evenodd;fill:rgb(0%,0%,0%);fill-opacity:1;stroke-width:1.5;stroke-linecap:butt;stroke-linejoin:round;stroke:rgb(0%,0%,0%);stroke-opacity:1;stroke-miterlimit:4;" d="M 12 36 L 12 32 L 33 32 L 33 36 Z M 12 36 " transform="matrix(2,0,0,2,360,90)"/>
<path style="fill-rule:evenodd;fill:rgb(0%,0%,0%);fill-opacity:1;stroke-width:1.5;stroke-linecap:butt;stroke-linejoin:miter;stroke:rgb(0%,0%,0%);stroke-opacity:1;stroke-miterlimit:4;" d="M 14 29.5 L 14 16.5 L 31 16.5 L 31 29.5 Z M 14 29.5 " transform="matrix(2,0,0,2,360,90)"/>
<path style="fill-rule:evenodd;fill:rgb(0%,0%,0%);fill-opacity:1;stroke-width:1.5;stroke-linecap:butt;stroke-linejoin:round;stroke:rgb(0%,0%,0%);stroke-opacity:1;stroke-miterlimit:4;" d="M 14 16.5 L 11 14 L 34 14 L 31 16.5 Z M 14 16.5 " transform="matrix(2,0,0,2,360,90)"/>
<path style="fill-rule:evenodd;fill:rgb(0%,0%,0%);fill-opacity:1;stroke-width:1.5;stroke-linecap:butt;stroke-linejoin:round;stroke:rgb(0%,0%,0%);stroke-opacity:1;stroke-miterlimit:4;" d="M 11 14 L 11 9 L 15 9 L 15 11 L 20 11 L 20 9 L 25 9 L 25 11 L 30 11 L 30 9 L 34 9 L 34 14 Z M 11 14 " transform="matrix(2,0,0,2,360,90)"/>
<path style="fill:none;stroke-width:1;stroke-linecap:round;stroke-linejoin:miter;stroke:rgb(100%,100%,100%);stroke-opacity:1;stroke-miterlimit:4;" d="M 12 35.5 L 33 35.5 " transform="matrix(2,0,0,2,360,90)"/>
<path style="fill:none;stroke-width:1;stroke-linecap:round;stroke-linejoin:miter;stroke:rgb(100%,100%,100%);stroke-opacity:1;stroke-miterlimit:4;" d="M 13 31.5 L 32 31.5 " transform="matrix(2,0,0,2,360,90)"/>
<path style="fill:none;stroke-width:1;stroke-linecap:round;stroke-linejoin:miter;stroke:rgb(100%,100%,100%);stroke-opacity:1;stroke-miterlimit:4;" d="M 14 29.5 L 31 29.5 " transform="matrix(2,0,0,2,360,90)"/>
<path style="fill:none;stroke-width:1;stroke-linecap:round;stroke-linejoin:miter;stroke:rgb(100%,100%,100%);stroke-opacity:1;stroke-miterlimit:4;" d="M 14 16.5 L 31 16.5 " transform="matrix(2,0,0,2,360,90)"/>
<path style="fill:none;stroke-width:1;stroke-linecap:round;stroke-linejoin:miter;stroke:rgb(100%,100%,100%);stroke-opacity:1;stroke-miterlimit:4;" d="M 11 14 L 34 14 " transform="matrix(2,0,0,2,360,90)"/>
<path style="fill-rule:nonzero;fill:rgb(0%,0%,0%);fill-opacity:1;stroke-width:1.5;stroke-linecap:round;stroke-linejoin:miter;stroke:rgb(0%,0%,0%);stroke-opacity:1;stroke-miterlimit:4;" d="M 22 9 C 19.789062 9 18 10.789062 18 13 C 18 13.890625 18.289062 14.710938 18.779297 15.380859 C 16.830078 16.5 15.5 18.589844 15.5 21 C 15.5 23.029297 16.439453 24.839844 17.910156 26.029297 C 14.910156 27.089844 10.5 31.580078 10.5 39.5 L 33.5 39.5 C 33.5 31.580078 29.089844 27.089844 26.089844 26.029297 C 27.560547 24.839844 28.5 23.029297 28.5 21 C 28.5 18.589844 27.169922 16.5 25.220703 15.380859 C 25.710938 14.710938 26 13.890625 26 13 C 26 10.789062 24.210938 9 22 9 Z M 22 9 " transform="matrix(2,0,0,2,450,90)"/>
</g>
</svg>
